<?xml version="1.0" encoding="UTF-8" standalone="no"?>
<!-- Generator: Adobe Illustrator 24.3.0, SVG Export Plug-In . SVG Version: 6.00 Build 0)  -->

<svg
   version="1.1"
   id="Layer_1"
   x="0px"
   y="0px"
   viewBox="0 0 106.67 36.540001"
   xml:space="preserve"
   sodipodi:docname="bluesky_ophyd_logo_WithSmBsky.svg"
   width="106.67"
   height="36.540001"
   inkscape:version="1.2.1 (0b8a7e5fb6, 2022-09-14, custom)"
   xmlns:inkscape="http://www.inkscape.org/namespaces/inkscape"
   xmlns:sodipodi="http://sodipodi.sourceforge.net/DTD/sodipodi-0.dtd"
   xmlns="http://www.w3.org/2000/svg"
   xmlns:svg="http://www.w3.org/2000/svg"><defs
   id="defs106" /><sodipodi:namedview
   id="namedview104"
   pagecolor="#ffffff"
   bordercolor="#666666"
   borderopacity="1.0"
   inkscape:showpageshadow="2"
   inkscape:pageopacity="0.0"
   inkscape:pagecheckerboard="0"
   inkscape:deskcolor="#d1d1d1"
   showgrid="false"
   inkscape:zoom="5.5982906"
   inkscape:cx="75.737405"
   inkscape:cy="18.30916"
   inkscape:window-width="3368"
   inkscape:window-height="1376"
   inkscape:window-x="72"
   inkscape:window-y="27"
   inkscape:window-maximized="1"
   inkscape:current-layer="Layer_1" />
<style
   type="text/css"
   id="style2">
	.st0{fill:url(#SVGID_1_);}
	.st1{fill:url(#SVGID_2_);}
	.st2{fill:url(#SVGID_3_);}
	.st3{fill:url(#SVGID_4_);}
	.st4{fill:url(#SVGID_5_);}
	.st5{fill:url(#SVGID_6_);}
	.st6{fill:url(#SVGID_7_);}
	.st7{fill:url(#SVGID_8_);}
	.st8{fill:#EB7C44;}
	.st9{fill:url(#SVGID_9_);}
	.st10{fill:url(#SVGID_10_);}
	.st11{fill:url(#SVGID_11_);}
	.st12{fill:url(#SVGID_12_);}
	.st13{fill:#33BBED;}
	.st14{fill:url(#SVGID_13_);}
	.st15{fill:url(#SVGID_14_);}
	.st16{fill:url(#SVGID_15_);}
	.st17{fill:url(#SVGID_16_);}
	.st18{fill:url(#SVGID_17_);}
	.st19{fill:url(#SVGID_18_);}
	.st20{fill:url(#SVGID_19_);}
	.st21{fill:url(#SVGID_20_);}
	.st22{fill:url(#SVGID_21_);}
</style>
<g
   id="g101"
   transform="translate(-41.18,-26.73)">
	<g
   id="g71">
		<g
   id="g18">
			<path
   class="st13"
   d="m 84.15,51.65 c 0,-0.23 0.07,-0.41 0.21,-0.52 0.14,-0.11 0.33,-0.17 0.58,-0.17 0.16,0 0.3,0.02 0.43,0.06 0.13,0.04 0.22,0.07 0.26,0.08 v 3.73 c 0.22,-0.28 0.52,-0.51 0.9,-0.71 0.38,-0.2 0.82,-0.29 1.31,-0.29 0.48,0 0.92,0.08 1.32,0.25 0.4,0.17 0.75,0.41 1.05,0.71 0.3,0.31 0.53,0.67 0.7,1.09 0.17,0.42 0.25,0.88 0.25,1.38 0,0.49 -0.09,0.95 -0.26,1.38 -0.17,0.42 -0.42,0.79 -0.73,1.09 -0.31,0.3 -0.68,0.54 -1.11,0.71 -0.43,0.17 -0.9,0.26 -1.41,0.26 -0.51,0 -0.98,-0.08 -1.41,-0.23 -0.43,-0.16 -0.8,-0.39 -1.11,-0.7 -0.31,-0.31 -0.55,-0.7 -0.73,-1.17 -0.17,-0.47 -0.26,-1.02 -0.26,-1.65 v -5.3 z m 3.48,7.73 c 0.29,0 0.57,-0.05 0.81,-0.16 0.24,-0.11 0.46,-0.26 0.64,-0.44 0.18,-0.19 0.31,-0.41 0.41,-0.66 0.09,-0.26 0.14,-0.53 0.14,-0.84 0,-0.3 -0.05,-0.58 -0.14,-0.84 -0.1,-0.26 -0.23,-0.48 -0.41,-0.67 -0.18,-0.19 -0.39,-0.33 -0.64,-0.44 -0.25,-0.11 -0.52,-0.16 -0.81,-0.16 -0.3,0 -0.58,0.05 -0.83,0.16 -0.25,0.11 -0.46,0.26 -0.63,0.45 -0.17,0.19 -0.31,0.42 -0.41,0.68 -0.1,0.26 -0.15,0.54 -0.15,0.83 0,0.31 0.05,0.6 0.15,0.86 0.1,0.26 0.24,0.48 0.42,0.66 0.18,0.18 0.39,0.32 0.64,0.43 0.25,0.09 0.52,0.14 0.81,0.14 z"
   id="path4" />
			<path
   class="st13"
   d="m 93.31,51.65 c 0,-0.23 0.07,-0.41 0.21,-0.52 0.14,-0.11 0.33,-0.17 0.58,-0.17 0.16,0 0.3,0.02 0.43,0.06 0.13,0.04 0.22,0.07 0.26,0.08 v 9.44 h -1.48 z"
   id="path6" />
			<path
   class="st13"
   d="m 97.2,54.71 c 0,-0.24 0.07,-0.42 0.21,-0.53 0.14,-0.11 0.33,-0.16 0.58,-0.16 0.16,0 0.3,0.02 0.43,0.06 0.13,0.04 0.22,0.07 0.26,0.08 v 3.42 c 0,0.59 0.14,1.04 0.42,1.35 0.28,0.31 0.7,0.46 1.27,0.46 0.57,0 1,-0.15 1.27,-0.46 0.27,-0.31 0.42,-0.76 0.42,-1.35 v -2.87 c 0,-0.24 0.07,-0.42 0.21,-0.53 0.14,-0.11 0.33,-0.16 0.57,-0.16 0.16,0 0.31,0.02 0.44,0.06 0.13,0.04 0.22,0.07 0.26,0.08 v 3.74 c 0,0.44 -0.08,0.84 -0.23,1.19 -0.15,0.35 -0.37,0.65 -0.65,0.89 -0.28,0.24 -0.62,0.43 -1.01,0.55 -0.39,0.13 -0.82,0.19 -1.29,0.19 -0.47,0 -0.9,-0.06 -1.29,-0.19 -0.39,-0.13 -0.72,-0.31 -1,-0.55 -0.28,-0.24 -0.49,-0.54 -0.65,-0.89 -0.16,-0.35 -0.23,-0.75 -0.23,-1.19 v -3.19 z"
   id="path8" />
			<path
   class="st13"
   d="m 111.69,60.06 c -0.07,0.04 -0.18,0.1 -0.33,0.18 -0.15,0.08 -0.33,0.15 -0.55,0.22 -0.22,0.07 -0.48,0.13 -0.77,0.18 -0.29,0.05 -0.61,0.08 -0.96,0.08 -0.49,0 -0.94,-0.07 -1.36,-0.22 -0.42,-0.15 -0.79,-0.37 -1.11,-0.66 -0.32,-0.29 -0.57,-0.65 -0.75,-1.07 -0.18,-0.42 -0.27,-0.9 -0.27,-1.45 0,-0.52 0.09,-0.99 0.27,-1.42 0.18,-0.43 0.42,-0.8 0.74,-1.1 0.32,-0.3 0.69,-0.55 1.12,-0.71 0.43,-0.17 0.9,-0.25 1.41,-0.25 0.45,0 0.85,0.06 1.2,0.18 0.35,0.12 0.64,0.27 0.88,0.47 0.24,0.2 0.42,0.42 0.54,0.68 0.12,0.26 0.18,0.54 0.18,0.83 0,0.3 -0.06,0.58 -0.17,0.83 -0.11,0.25 -0.31,0.46 -0.6,0.64 -0.29,0.18 -0.67,0.32 -1.16,0.42 -0.49,0.1 -1.1,0.15 -1.85,0.15 -0.17,0 -0.34,0 -0.49,-0.01 -0.15,0 -0.31,-0.01 -0.49,-0.02 0.07,0.44 0.28,0.8 0.64,1.07 0.36,0.27 0.87,0.41 1.54,0.41 0.23,0 0.43,-0.02 0.62,-0.05 0.19,-0.03 0.36,-0.08 0.51,-0.13 0.15,-0.05 0.28,-0.1 0.39,-0.16 0.11,-0.05 0.19,-0.09 0.24,-0.12 z m -4.57,-3.08 c 0.2,0.01 0.39,0.01 0.57,0.01 0.18,0 0.36,0 0.55,0 0.48,0 0.86,-0.03 1.16,-0.09 0.29,-0.06 0.52,-0.14 0.69,-0.23 0.16,-0.1 0.27,-0.2 0.32,-0.33 0.05,-0.12 0.08,-0.25 0.08,-0.38 0,-0.33 -0.13,-0.58 -0.4,-0.74 -0.27,-0.16 -0.59,-0.25 -0.98,-0.25 -0.32,0 -0.6,0.06 -0.84,0.17 -0.24,0.11 -0.45,0.26 -0.61,0.45 -0.17,0.19 -0.29,0.4 -0.38,0.64 -0.09,0.24 -0.15,0.5 -0.16,0.75 z"
   id="path10" />
			<path
   class="st13"
   d="m 114.09,58.92 c 0.06,0.04 0.17,0.1 0.33,0.17 0.16,0.07 0.35,0.14 0.58,0.21 0.23,0.07 0.49,0.14 0.79,0.19 0.29,0.05 0.62,0.08 0.96,0.08 0.45,0 0.82,-0.06 1.11,-0.18 0.29,-0.12 0.43,-0.32 0.43,-0.6 0,-0.24 -0.09,-0.43 -0.27,-0.55 -0.18,-0.13 -0.51,-0.21 -0.97,-0.27 l -1.01,-0.12 c -0.35,-0.03 -0.67,-0.1 -0.96,-0.19 -0.29,-0.09 -0.54,-0.21 -0.75,-0.37 -0.21,-0.16 -0.37,-0.35 -0.49,-0.58 -0.12,-0.23 -0.18,-0.5 -0.18,-0.83 0,-0.28 0.05,-0.54 0.16,-0.79 0.11,-0.25 0.28,-0.47 0.51,-0.66 0.23,-0.19 0.54,-0.34 0.92,-0.45 0.38,-0.11 0.83,-0.16 1.37,-0.16 0.9,0 1.6,0.1 2.1,0.3 0.5,0.2 0.75,0.46 0.75,0.78 0,0.1 -0.02,0.2 -0.06,0.27 -0.04,0.08 -0.08,0.15 -0.13,0.21 -0.05,0.06 -0.1,0.11 -0.15,0.15 -0.05,0.04 -0.09,0.06 -0.12,0.07 -0.03,-0.03 -0.11,-0.09 -0.23,-0.16 -0.12,-0.07 -0.27,-0.15 -0.47,-0.22 -0.2,-0.07 -0.44,-0.14 -0.71,-0.19 -0.28,-0.06 -0.6,-0.08 -0.96,-0.08 -1.01,0 -1.51,0.26 -1.51,0.79 0,0.23 0.09,0.4 0.29,0.51 0.19,0.12 0.46,0.2 0.82,0.24 l 1.33,0.17 c 0.72,0.1 1.28,0.29 1.68,0.59 0.4,0.3 0.6,0.74 0.6,1.32 0,0.65 -0.26,1.17 -0.77,1.56 -0.52,0.39 -1.26,0.58 -2.23,0.58 -0.47,0 -0.89,-0.03 -1.27,-0.1 -0.38,-0.07 -0.71,-0.15 -0.99,-0.24 -0.28,-0.09 -0.51,-0.18 -0.68,-0.27 -0.17,-0.09 -0.29,-0.15 -0.34,-0.2 z"
   id="path12" />
			<path
   class="st13"
   d="m 121.9,51.65 c 0,-0.23 0.07,-0.41 0.21,-0.52 0.14,-0.11 0.33,-0.17 0.58,-0.17 0.16,0 0.3,0.02 0.43,0.06 0.13,0.04 0.22,0.07 0.26,0.08 v 5.31 c 0.11,-0.08 0.27,-0.19 0.47,-0.34 0.2,-0.15 0.43,-0.32 0.68,-0.5 0.25,-0.18 0.51,-0.37 0.78,-0.57 0.27,-0.2 0.52,-0.38 0.77,-0.56 0.19,-0.14 0.36,-0.24 0.52,-0.32 0.16,-0.07 0.36,-0.11 0.61,-0.11 0.23,0 0.43,0.06 0.6,0.19 0.17,0.13 0.27,0.23 0.31,0.32 -0.18,0.16 -0.43,0.36 -0.75,0.6 -0.32,0.24 -0.64,0.48 -0.97,0.71 -0.33,0.24 -0.64,0.46 -0.94,0.66 -0.29,0.2 -0.51,0.35 -0.64,0.45 0.74,0.55 1.41,1.14 2.01,1.78 0.6,0.64 1.12,1.24 1.53,1.82 h -1.85 c -0.2,-0.24 -0.42,-0.5 -0.67,-0.76 -0.25,-0.26 -0.51,-0.53 -0.79,-0.78 -0.28,-0.26 -0.57,-0.5 -0.86,-0.74 -0.29,-0.24 -0.57,-0.46 -0.84,-0.66 v 2.94 h -1.48 v -8.89 z"
   id="path14" />
			<path
   class="st13"
   d="m 129.9,54.71 c 0,-0.23 0.07,-0.41 0.21,-0.52 0.14,-0.11 0.33,-0.17 0.57,-0.17 0.16,0 0.3,0.02 0.44,0.06 0.13,0.04 0.22,0.07 0.27,0.08 v 3.47 c 0,0.51 0.14,0.92 0.41,1.22 0.27,0.3 0.7,0.46 1.27,0.46 0.53,0 0.95,-0.15 1.25,-0.46 0.3,-0.31 0.46,-0.76 0.46,-1.36 v -2.78 c 0,-0.23 0.07,-0.41 0.21,-0.52 0.14,-0.11 0.33,-0.17 0.57,-0.17 0.16,0 0.3,0.02 0.44,0.06 0.13,0.04 0.22,0.07 0.27,0.08 v 5.69 c 0,0.62 -0.08,1.14 -0.25,1.57 -0.17,0.43 -0.4,0.78 -0.7,1.06 -0.3,0.28 -0.67,0.48 -1.09,0.6 -0.42,0.13 -0.9,0.19 -1.42,0.19 -0.36,0 -0.68,-0.02 -0.97,-0.06 -0.29,-0.04 -0.56,-0.08 -0.79,-0.14 -0.23,-0.05 -0.42,-0.1 -0.57,-0.15 -0.15,-0.05 -0.25,-0.08 -0.31,-0.11 0.07,-0.18 0.13,-0.37 0.2,-0.55 0.06,-0.19 0.12,-0.37 0.18,-0.55 0.06,0.03 0.16,0.06 0.29,0.1 0.13,0.04 0.29,0.08 0.47,0.12 0.18,0.04 0.39,0.07 0.62,0.1 0.23,0.03 0.47,0.04 0.73,0.04 0.34,0 0.64,-0.04 0.91,-0.11 0.27,-0.07 0.5,-0.2 0.68,-0.38 0.19,-0.18 0.33,-0.42 0.43,-0.72 0.1,-0.3 0.15,-0.67 0.15,-1.12 -0.17,0.25 -0.44,0.45 -0.81,0.6 -0.37,0.15 -0.77,0.23 -1.21,0.23 -0.42,0 -0.8,-0.06 -1.16,-0.18 -0.36,-0.12 -0.66,-0.29 -0.91,-0.51 -0.25,-0.22 -0.45,-0.5 -0.59,-0.83 -0.14,-0.33 -0.21,-0.71 -0.21,-1.13 v -3.21 z"
   id="path16" />
		</g>
		<g
   id="g69">
			<linearGradient
   id="SVGID_1_"
   gradientUnits="userSpaceOnUse"
   x1="110.1963"
   y1="63.271"
   x2="110.1963"
   y2="50.961399">
				<stop
   offset="0"
   style="stop-color:#33BBED"
   id="stop20" />
				<stop
   offset="0.9982"
   style="stop-color:#3777BC"
   id="stop22" />
			</linearGradient>
			<path
   class="st0"
   d="m 84.15,51.65 c 0,-0.23 0.07,-0.41 0.21,-0.52 0.14,-0.11 0.33,-0.17 0.58,-0.17 0.16,0 0.3,0.02 0.43,0.06 0.13,0.04 0.22,0.07 0.26,0.08 v 3.73 c 0.22,-0.28 0.52,-0.51 0.9,-0.71 0.38,-0.2 0.82,-0.29 1.31,-0.29 0.48,0 0.92,0.08 1.32,0.25 0.4,0.17 0.75,0.41 1.05,0.71 0.3,0.31 0.53,0.67 0.7,1.09 0.17,0.42 0.25,0.88 0.25,1.38 0,0.49 -0.09,0.95 -0.26,1.38 -0.17,0.42 -0.42,0.79 -0.73,1.09 -0.31,0.3 -0.68,0.54 -1.11,0.71 -0.43,0.17 -0.9,0.26 -1.41,0.26 -0.51,0 -0.98,-0.08 -1.41,-0.23 -0.43,-0.16 -0.8,-0.39 -1.11,-0.7 -0.31,-0.31 -0.55,-0.7 -0.73,-1.17 -0.17,-0.47 -0.26,-1.02 -0.26,-1.65 v -5.3 z m 3.48,7.73 c 0.29,0 0.57,-0.05 0.81,-0.16 0.24,-0.11 0.46,-0.26 0.64,-0.44 0.18,-0.19 0.31,-0.41 0.41,-0.66 0.09,-0.26 0.14,-0.53 0.14,-0.84 0,-0.3 -0.05,-0.58 -0.14,-0.84 -0.1,-0.26 -0.23,-0.48 -0.41,-0.67 -0.18,-0.19 -0.39,-0.33 -0.64,-0.44 -0.25,-0.11 -0.52,-0.16 -0.81,-0.16 -0.3,0 -0.58,0.05 -0.83,0.16 -0.25,0.11 -0.46,0.26 -0.63,0.45 -0.17,0.19 -0.31,0.42 -0.41,0.68 -0.1,0.26 -0.15,0.54 -0.15,0.83 0,0.31 0.05,0.6 0.15,0.86 0.1,0.26 0.24,0.48 0.42,0.66 0.18,0.18 0.39,0.32 0.64,0.43 0.25,0.09 0.52,0.14 0.81,0.14 z"
   id="path25"
   style="fill:url(#SVGID_1_)" />
			<linearGradient
   id="SVGID_2_"
   gradientUnits="userSpaceOnUse"
   x1="110.1963"
   y1="63.271"
   x2="110.1963"
   y2="50.961399">
				<stop
   offset="0"
   style="stop-color:#33BBED"
   id="stop27" />
				<stop
   offset="0.9982"
   style="stop-color:#3777BC"
   id="stop29" />
			</linearGradient>
			<path
   class="st1"
   d="m 93.31,51.65 c 0,-0.23 0.07,-0.41 0.21,-0.52 0.14,-0.11 0.33,-0.17 0.58,-0.17 0.16,0 0.3,0.02 0.43,0.06 0.13,0.04 0.22,0.07 0.26,0.08 v 9.44 h -1.48 z"
   id="path32"
   style="fill:url(#SVGID_2_)" />
			<linearGradient
   id="SVGID_3_"
   gradientUnits="userSpaceOnUse"
   x1="110.1963"
   y1="63.271"
   x2="110.1963"
   y2="50.961399">
				<stop
   offset="0"
   style="stop-color:#33BBED"
   id="stop34" />
				<stop
   offset="0.9982"
   style="stop-color:#3777BC"
   id="stop36" />
			</linearGradient>
			<path
   class="st2"
   d="m 97.2,54.71 c 0,-0.24 0.07,-0.42 0.21,-0.53 0.14,-0.11 0.33,-0.16 0.58,-0.16 0.16,0 0.3,0.02 0.43,0.06 0.13,0.04 0.22,0.07 0.26,0.08 v 3.42 c 0,0.59 0.14,1.04 0.42,1.35 0.28,0.31 0.7,0.46 1.27,0.46 0.57,0 1,-0.15 1.27,-0.46 0.27,-0.31 0.42,-0.76 0.42,-1.35 v -2.87 c 0,-0.24 0.07,-0.42 0.21,-0.53 0.14,-0.11 0.33,-0.16 0.57,-0.16 0.16,0 0.31,0.02 0.44,0.06 0.13,0.04 0.22,0.07 0.26,0.08 v 3.74 c 0,0.44 -0.08,0.84 -0.23,1.19 -0.15,0.35 -0.37,0.65 -0.65,0.89 -0.28,0.24 -0.62,0.43 -1.01,0.55 -0.39,0.13 -0.82,0.19 -1.29,0.19 -0.47,0 -0.9,-0.06 -1.29,-0.19 -0.39,-0.13 -0.72,-0.31 -1,-0.55 -0.28,-0.24 -0.49,-0.54 -0.65,-0.89 -0.16,-0.35 -0.23,-0.75 -0.23,-1.19 v -3.19 z"
   id="path39"
   style="fill:url(#SVGID_3_)" />
			<linearGradient
   id="SVGID_4_"
   gradientUnits="userSpaceOnUse"
   x1="110.1963"
   y1="63.271"
   x2="110.1963"
   y2="50.961399">
				<stop
   offset="0"
   style="stop-color:#33BBED"
   id="stop41" />
				<stop
   offset="0.9982"
   style="stop-color:#3777BC"
   id="stop43" />
			</linearGradient>
			<path
   class="st3"
   d="m 111.69,60.06 c -0.07,0.04 -0.18,0.1 -0.33,0.18 -0.15,0.08 -0.33,0.15 -0.55,0.22 -0.22,0.07 -0.48,0.13 -0.77,0.18 -0.29,0.05 -0.61,0.08 -0.96,0.08 -0.49,0 -0.94,-0.07 -1.36,-0.22 -0.42,-0.15 -0.79,-0.37 -1.11,-0.66 -0.32,-0.29 -0.57,-0.65 -0.75,-1.07 -0.18,-0.42 -0.27,-0.9 -0.27,-1.45 0,-0.52 0.09,-0.99 0.27,-1.42 0.18,-0.43 0.42,-0.8 0.74,-1.1 0.32,-0.3 0.69,-0.55 1.12,-0.71 0.43,-0.17 0.9,-0.25 1.41,-0.25 0.45,0 0.85,0.06 1.2,0.18 0.35,0.12 0.64,0.27 0.88,0.47 0.24,0.2 0.42,0.42 0.54,0.68 0.12,0.26 0.18,0.54 0.18,0.83 0,0.3 -0.06,0.58 -0.17,0.83 -0.11,0.25 -0.31,0.46 -0.6,0.64 -0.29,0.18 -0.67,0.32 -1.16,0.42 -0.49,0.1 -1.1,0.15 -1.85,0.15 -0.17,0 -0.34,0 -0.49,-0.01 -0.15,0 -0.31,-0.01 -0.49,-0.02 0.07,0.44 0.28,0.8 0.64,1.07 0.36,0.27 0.87,0.41 1.54,0.41 0.23,0 0.43,-0.02 0.62,-0.05 0.19,-0.03 0.36,-0.08 0.51,-0.13 0.15,-0.05 0.28,-0.1 0.39,-0.16 0.11,-0.05 0.19,-0.09 0.24,-0.12 z m -4.57,-3.08 c 0.2,0.01 0.39,0.01 0.57,0.01 0.18,0 0.36,0 0.55,0 0.48,0 0.86,-0.03 1.16,-0.09 0.29,-0.06 0.52,-0.14 0.69,-0.23 0.16,-0.1 0.27,-0.2 0.32,-0.33 0.05,-0.12 0.08,-0.25 0.08,-0.38 0,-0.33 -0.13,-0.58 -0.4,-0.74 -0.27,-0.16 -0.59,-0.25 -0.98,-0.25 -0.32,0 -0.6,0.06 -0.84,0.17 -0.24,0.11 -0.45,0.26 -0.61,0.45 -0.17,0.19 -0.29,0.4 -0.38,0.64 -0.09,0.24 -0.15,0.5 -0.16,0.75 z"
   id="path46"
   style="fill:url(#SVGID_4_)" />
			<linearGradient
   id="SVGID_5_"
   gradientUnits="userSpaceOnUse"
   x1="110.1963"
   y1="63.271"
   x2="110.1963"
   y2="50.961399">
				<stop
   offset="0"
   style="stop-color:#33BBED"
   id="stop48" />
				<stop
   offset="0.9982"
   style="stop-color:#3777BC"
   id="stop50" />
			</linearGradient>
			<path
   class="st4"
   d="m 114.09,58.92 c 0.06,0.04 0.17,0.1 0.33,0.17 0.16,0.07 0.35,0.14 0.58,0.21 0.23,0.07 0.49,0.14 0.79,0.19 0.29,0.05 0.62,0.08 0.96,0.08 0.45,0 0.82,-0.06 1.11,-0.18 0.29,-0.12 0.43,-0.32 0.43,-0.6 0,-0.24 -0.09,-0.43 -0.27,-0.55 -0.18,-0.13 -0.51,-0.21 -0.97,-0.27 l -1.01,-0.12 c -0.35,-0.03 -0.67,-0.1 -0.96,-0.19 -0.29,-0.09 -0.54,-0.21 -0.75,-0.37 -0.21,-0.16 -0.37,-0.35 -0.49,-0.58 -0.12,-0.23 -0.18,-0.5 -0.18,-0.83 0,-0.28 0.05,-0.54 0.16,-0.79 0.11,-0.25 0.28,-0.47 0.51,-0.66 0.23,-0.19 0.54,-0.34 0.92,-0.45 0.38,-0.11 0.83,-0.16 1.37,-0.16 0.9,0 1.6,0.1 2.1,0.3 0.5,0.2 0.75,0.46 0.75,0.78 0,0.1 -0.02,0.2 -0.06,0.27 -0.04,0.08 -0.08,0.15 -0.13,0.21 -0.05,0.06 -0.1,0.11 -0.15,0.15 -0.05,0.04 -0.09,0.06 -0.12,0.07 -0.03,-0.03 -0.11,-0.09 -0.23,-0.16 -0.12,-0.07 -0.27,-0.15 -0.47,-0.22 -0.2,-0.07 -0.44,-0.14 -0.71,-0.19 -0.28,-0.06 -0.6,-0.08 -0.96,-0.08 -1.01,0 -1.51,0.26 -1.51,0.79 0,0.23 0.09,0.4 0.29,0.51 0.19,0.12 0.46,0.2 0.82,0.24 l 1.33,0.17 c 0.72,0.1 1.28,0.29 1.68,0.59 0.4,0.3 0.6,0.74 0.6,1.32 0,0.65 -0.26,1.17 -0.77,1.56 -0.52,0.39 -1.26,0.58 -2.23,0.58 -0.47,0 -0.89,-0.03 -1.27,-0.1 -0.38,-0.07 -0.71,-0.15 -0.99,-0.24 -0.28,-0.09 -0.51,-0.18 -0.68,-0.27 -0.17,-0.09 -0.29,-0.15 -0.34,-0.2 z"
   id="path53"
   style="fill:url(#SVGID_5_)" />
			<linearGradient
   id="SVGID_6_"
   gradientUnits="userSpaceOnUse"
   x1="110.1963"
   y1="63.271"
   x2="110.1963"
   y2="50.961399">
				<stop
   offset="0"
   style="stop-color:#33BBED"
   id="stop55" />
				<stop
   offset="0.9982"
   style="stop-color:#3777BC"
   id="stop57" />
			</linearGradient>
			<path
   class="st5"
   d="m 121.9,51.65 c 0,-0.23 0.07,-0.41 0.21,-0.52 0.14,-0.11 0.33,-0.17 0.58,-0.17 0.16,0 0.3,0.02 0.43,0.06 0.13,0.04 0.22,0.07 0.26,0.08 v 5.31 c 0.11,-0.08 0.27,-0.19 0.47,-0.34 0.2,-0.15 0.43,-0.32 0.68,-0.5 0.25,-0.18 0.51,-0.37 0.78,-0.57 0.27,-0.2 0.52,-0.38 0.77,-0.56 0.19,-0.14 0.36,-0.24 0.52,-0.32 0.16,-0.07 0.36,-0.11 0.61,-0.11 0.23,0 0.43,0.06 0.6,0.19 0.17,0.13 0.27,0.23 0.31,0.32 -0.18,0.16 -0.43,0.36 -0.75,0.6 -0.32,0.24 -0.64,0.48 -0.97,0.71 -0.33,0.24 -0.64,0.46 -0.94,0.66 -0.29,0.2 -0.51,0.35 -0.64,0.45 0.74,0.55 1.41,1.14 2.01,1.78 0.6,0.64 1.12,1.24 1.53,1.82 h -1.85 c -0.2,-0.24 -0.42,-0.5 -0.67,-0.76 -0.25,-0.26 -0.51,-0.53 -0.79,-0.78 -0.28,-0.26 -0.57,-0.5 -0.86,-0.74 -0.29,-0.24 -0.57,-0.46 -0.84,-0.66 v 2.94 h -1.48 v -8.89 z"
   id="path60"
   style="fill:url(#SVGID_6_)" />
			<linearGradient
   id="SVGID_7_"
   gradientUnits="userSpaceOnUse"
   x1="110.1963"
   y1="63.271"
   x2="110.1963"
   y2="50.961399">
				<stop
   offset="0"
   style="stop-color:#33BBED"
   id="stop62" />
				<stop
   offset="0.9982"
   style="stop-color:#3777BC"
   id="stop64" />
			</linearGradient>
			<path
   class="st6"
   d="m 129.9,54.71 c 0,-0.23 0.07,-0.41 0.21,-0.52 0.14,-0.11 0.33,-0.17 0.57,-0.17 0.16,0 0.3,0.02 0.44,0.06 0.13,0.04 0.22,0.07 0.27,0.08 v 3.47 c 0,0.51 0.14,0.92 0.41,1.22 0.27,0.3 0.7,0.46 1.27,0.46 0.53,0 0.95,-0.15 1.25,-0.46 0.3,-0.31 0.46,-0.76 0.46,-1.36 v -2.78 c 0,-0.23 0.07,-0.41 0.21,-0.52 0.14,-0.11 0.33,-0.17 0.57,-0.17 0.16,0 0.3,0.02 0.44,0.06 0.13,0.04 0.22,0.07 0.27,0.08 v 5.69 c 0,0.62 -0.08,1.14 -0.25,1.57 -0.17,0.43 -0.4,0.78 -0.7,1.06 -0.3,0.28 -0.67,0.48 -1.09,0.6 -0.42,0.13 -0.9,0.19 -1.42,0.19 -0.36,0 -0.68,-0.02 -0.97,-0.06 -0.29,-0.04 -0.56,-0.08 -0.79,-0.14 -0.23,-0.05 -0.42,-0.1 -0.57,-0.15 -0.15,-0.05 -0.25,-0.08 -0.31,-0.11 0.07,-0.18 0.13,-0.37 0.2,-0.55 0.06,-0.19 0.12,-0.37 0.18,-0.55 0.06,0.03 0.16,0.06 0.29,0.1 0.13,0.04 0.29,0.08 0.47,0.12 0.18,0.04 0.39,0.07 0.62,0.1 0.23,0.03 0.47,0.04 0.73,0.04 0.34,0 0.64,-0.04 0.91,-0.11 0.27,-0.07 0.5,-0.2 0.68,-0.38 0.19,-0.18 0.33,-0.42 0.43,-0.72 0.1,-0.3 0.15,-0.67 0.15,-1.12 -0.17,0.25 -0.44,0.45 -0.81,0.6 -0.37,0.15 -0.77,0.23 -1.21,0.23 -0.42,0 -0.8,-0.06 -1.16,-0.18 -0.36,-0.12 -0.66,-0.29 -0.91,-0.51 -0.25,-0.22 -0.45,-0.5 -0.59,-0.83 -0.14,-0.33 -0.21,-0.71 -0.21,-1.13 v -3.21 z"
   id="path67"
   style="fill:url(#SVGID_7_)" />
		</g>
	</g>
	<g
   id="g83">
		<path
   class="st8"
   d="m 90.21,33.45 c 0.77,0 1.5,0.15 2.17,0.44 0.67,0.29 1.26,0.7 1.75,1.22 0.49,0.52 0.88,1.14 1.16,1.85 0.28,0.71 0.42,1.49 0.42,2.32 0,0.82 -0.14,1.59 -0.42,2.3 -0.28,0.71 -0.67,1.33 -1.16,1.85 -0.49,0.52 -1.08,0.93 -1.75,1.23 -0.67,0.3 -1.4,0.45 -2.17,0.45 -0.77,0 -1.5,-0.15 -2.17,-0.45 -0.67,-0.3 -1.26,-0.71 -1.75,-1.23 -0.49,-0.52 -0.88,-1.14 -1.16,-1.85 -0.28,-0.71 -0.42,-1.48 -0.42,-2.3 0,-0.84 0.14,-1.61 0.42,-2.32 0.28,-0.71 0.67,-1.33 1.16,-1.85 0.49,-0.52 1.08,-0.93 1.75,-1.22 0.68,-0.3 1.4,-0.44 2.17,-0.44 z m 0,9.44 c 0.45,0 0.87,-0.09 1.26,-0.28 0.39,-0.18 0.72,-0.44 0.99,-0.77 0.27,-0.33 0.49,-0.71 0.64,-1.14 0.15,-0.43 0.23,-0.91 0.23,-1.42 0,-0.51 -0.08,-0.99 -0.23,-1.44 -0.15,-0.45 -0.37,-0.83 -0.64,-1.16 -0.27,-0.32 -0.6,-0.58 -0.99,-0.76 -0.39,-0.18 -0.81,-0.28 -1.26,-0.28 -0.47,0 -0.89,0.09 -1.27,0.28 -0.38,0.18 -0.71,0.44 -0.98,0.76 -0.27,0.32 -0.49,0.71 -0.64,1.16 -0.15,0.45 -0.23,0.93 -0.23,1.44 0,0.51 0.08,0.99 0.23,1.42 0.15,0.43 0.37,0.81 0.64,1.14 0.27,0.33 0.6,0.59 0.98,0.77 0.38,0.19 0.81,0.28 1.27,0.28 z"
   id="path73" />
		<path
   class="st8"
   d="m 98.18,39.79 c 0,-1.03 0.13,-1.93 0.4,-2.72 0.27,-0.78 0.64,-1.45 1.12,-1.98 0.48,-0.54 1.06,-0.94 1.74,-1.22 0.68,-0.28 1.43,-0.42 2.26,-0.42 0.76,0 1.46,0.15 2.1,0.44 0.64,0.29 1.2,0.7 1.67,1.21 0.47,0.51 0.84,1.13 1.11,1.85 0.27,0.72 0.4,1.5 0.4,2.33 0,0.85 -0.13,1.63 -0.39,2.35 -0.26,0.72 -0.62,1.32 -1.08,1.84 -0.46,0.51 -1,0.91 -1.62,1.2 -0.62,0.29 -1.3,0.43 -2.03,0.43 -0.76,0 -1.43,-0.16 -2.02,-0.49 -0.59,-0.32 -1.05,-0.72 -1.38,-1.19 v 5.79 h -2.28 z m 5.36,3.08 c 0.45,0 0.87,-0.09 1.25,-0.27 0.38,-0.18 0.71,-0.44 0.98,-0.76 0.27,-0.32 0.48,-0.71 0.63,-1.14 0.15,-0.44 0.22,-0.92 0.22,-1.43 0,-0.5 -0.07,-0.96 -0.22,-1.4 -0.15,-0.43 -0.36,-0.81 -0.63,-1.12 -0.27,-0.32 -0.6,-0.57 -0.98,-0.75 -0.38,-0.18 -0.8,-0.27 -1.25,-0.27 -0.45,0 -0.87,0.09 -1.25,0.26 -0.38,0.18 -0.71,0.42 -0.98,0.73 -0.27,0.31 -0.49,0.68 -0.64,1.11 -0.15,0.43 -0.23,0.91 -0.23,1.44 0,0.51 0.08,0.99 0.23,1.43 0.15,0.44 0.36,0.82 0.63,1.14 0.27,0.32 0.59,0.58 0.97,0.76 0.38,0.18 0.81,0.27 1.27,0.27 z"
   id="path75" />
		<path
   class="st8"
   d="m 111.72,29.75 c 0,-0.4 0.11,-0.69 0.32,-0.88 0.21,-0.19 0.51,-0.29 0.9,-0.29 0.24,0 0.46,0.03 0.66,0.1 0.2,0.07 0.33,0.11 0.4,0.14 v 6.05 c 0.27,-0.35 0.67,-0.68 1.2,-0.99 0.53,-0.31 1.23,-0.46 2.08,-0.46 0.61,0 1.18,0.1 1.69,0.29 0.51,0.19 0.96,0.47 1.33,0.85 0.37,0.37 0.66,0.84 0.86,1.4 0.2,0.56 0.3,1.21 0.3,1.96 v 6.89 h -2.28 v -6.14 c 0,-0.97 -0.18,-1.7 -0.55,-2.2 -0.37,-0.5 -1,-0.75 -1.89,-0.75 -0.91,0 -1.59,0.29 -2.05,0.87 -0.46,0.58 -0.69,1.35 -0.69,2.3 v 5.92 h -2.28 z"
   id="path77" />
		<path
   class="st8"
   d="m 124.53,34.92 c 0,-0.4 0.11,-0.69 0.32,-0.88 0.21,-0.19 0.51,-0.29 0.88,-0.29 0.24,0 0.46,0.03 0.67,0.1 0.21,0.07 0.34,0.11 0.41,0.14 v 5.88 c 0,0.87 0.21,1.56 0.63,2.07 0.42,0.51 1.07,0.77 1.95,0.77 0.81,0 1.45,-0.26 1.92,-0.78 0.47,-0.52 0.7,-1.29 0.7,-2.3 v -4.71 c 0,-0.4 0.11,-0.69 0.32,-0.88 0.21,-0.19 0.51,-0.29 0.88,-0.29 0.24,0 0.46,0.03 0.67,0.1 0.21,0.07 0.34,0.11 0.41,0.14 v 9.64 c 0,1.04 -0.13,1.93 -0.38,2.65 -0.25,0.73 -0.61,1.32 -1.08,1.8 -0.47,0.47 -1.03,0.81 -1.68,1.02 -0.65,0.21 -1.38,0.32 -2.18,0.32 -0.55,0 -1.05,-0.03 -1.5,-0.1 -0.45,-0.07 -0.86,-0.14 -1.21,-0.23 -0.35,-0.09 -0.64,-0.17 -0.87,-0.25 -0.23,-0.08 -0.39,-0.14 -0.48,-0.19 0.11,-0.31 0.21,-0.62 0.3,-0.94 0.09,-0.32 0.19,-0.63 0.28,-0.94 0.09,0.04 0.24,0.1 0.44,0.18 0.2,0.07 0.44,0.14 0.72,0.21 0.28,0.07 0.6,0.12 0.95,0.17 0.35,0.04 0.73,0.07 1.13,0.07 0.52,0 0.99,-0.06 1.4,-0.19 0.41,-0.13 0.76,-0.34 1.05,-0.65 0.29,-0.31 0.51,-0.72 0.66,-1.22 0.15,-0.51 0.23,-1.14 0.23,-1.9 -0.27,0.43 -0.68,0.77 -1.25,1.02 -0.57,0.26 -1.19,0.39 -1.87,0.39 -0.64,0 -1.23,-0.1 -1.78,-0.3 -0.55,-0.2 -1.01,-0.48 -1.4,-0.86 -0.39,-0.37 -0.69,-0.84 -0.91,-1.4 -0.22,-0.56 -0.33,-1.2 -0.33,-1.92 z"
   id="path79" />
		<path
   class="st8"
   d="m 145.59,29.75 c 0,-0.4 0.1,-0.69 0.31,-0.88 0.21,-0.19 0.5,-0.29 0.89,-0.29 0.24,0 0.46,0.03 0.66,0.1 0.2,0.07 0.33,0.11 0.4,0.14 v 9.93 c 0,1.07 -0.14,2 -0.41,2.8 -0.27,0.79 -0.65,1.45 -1.13,1.98 -0.48,0.53 -1.05,0.92 -1.7,1.19 -0.65,0.26 -1.37,0.4 -2.14,0.4 -0.79,0 -1.51,-0.15 -2.17,-0.44 -0.66,-0.29 -1.23,-0.7 -1.71,-1.21 -0.48,-0.51 -0.86,-1.13 -1.13,-1.85 -0.27,-0.72 -0.41,-1.5 -0.41,-2.33 0,-0.85 0.13,-1.63 0.39,-2.34 0.26,-0.71 0.62,-1.33 1.08,-1.85 0.46,-0.52 1,-0.92 1.62,-1.21 0.62,-0.29 1.3,-0.43 2.03,-0.43 0.77,0 1.45,0.17 2.04,0.5 0.59,0.33 1.05,0.73 1.38,1.2 z m 0,9.53 c 0,-0.5 -0.08,-0.97 -0.23,-1.41 -0.15,-0.44 -0.36,-0.82 -0.63,-1.14 -0.27,-0.32 -0.59,-0.58 -0.97,-0.76 -0.38,-0.18 -0.8,-0.28 -1.25,-0.28 -0.47,0 -0.89,0.09 -1.26,0.28 -0.37,0.18 -0.7,0.43 -0.97,0.75 -0.27,0.32 -0.48,0.69 -0.63,1.13 -0.15,0.44 -0.22,0.92 -0.22,1.43 0,0.51 0.07,0.99 0.22,1.42 0.15,0.43 0.36,0.81 0.63,1.12 0.27,0.32 0.6,0.57 0.97,0.75 0.37,0.18 0.79,0.28 1.26,0.28 0.45,0 0.87,-0.09 1.25,-0.27 0.38,-0.18 0.7,-0.42 0.97,-0.73 0.27,-0.31 0.48,-0.68 0.63,-1.12 0.15,-0.44 0.23,-0.92 0.23,-1.45 z"
   id="path81" />
	</g>
	<g
   id="g99">
		<linearGradient
   id="SVGID_8_"
   gradientUnits="userSpaceOnUse"
   x1="59.0518"
   y1="62.368198"
   x2="59.0518"
   y2="27.850201">
			<stop
   offset="1.819156e-03"
   style="stop-color:#EB7C44"
   id="stop85" />
			<stop
   offset="1"
   style="stop-color:#FFD043"
   id="stop87" />
		</linearGradient>
		<path
   class="st7"
   d="m 59.05,26.73 c -9.87,0 -17.87,8 -17.87,17.87 0,9.87 8,17.87 17.87,17.87 9.87,0 17.87,-8 17.87,-17.87 0,-9.87 -8,-17.87 -17.87,-17.87 z m 10.09,21.14 c -0.46,1.42 -0.34,2.88 0.22,4.14 -0.02,0.03 -0.05,0.06 -0.07,0.09 -1.37,-0.14 -2.8,0.19 -4,1.07 -1.21,0.88 -1.96,2.13 -2.25,3.48 -0.03,0.01 -0.07,0.03 -0.1,0.04 -1.03,-0.92 -2.38,-1.5 -3.87,-1.5 -1.49,0 -2.84,0.57 -3.87,1.5 -0.04,-0.01 -0.07,-0.03 -0.1,-0.04 -0.29,-1.35 -1.05,-2.61 -2.25,-3.48 -1.2,-0.87 -2.63,-1.21 -4,-1.07 -0.02,-0.03 -0.05,-0.06 -0.07,-0.09 0.56,-1.26 0.68,-2.72 0.22,-4.14 -0.46,-1.42 -1.42,-2.53 -2.62,-3.22 0,-0.02 0,-0.04 0,-0.05 0,-0.02 0,-0.04 0,-0.05 1.2,-0.69 2.16,-1.8 2.62,-3.22 0.46,-1.42 0.34,-2.88 -0.22,-4.14 0.02,-0.03 0.05,-0.06 0.07,-0.09 1.37,0.14 2.8,-0.19 4,-1.07 1.21,-0.88 1.96,-2.13 2.25,-3.48 0.03,-0.01 0.07,-0.03 0.1,-0.04 1.03,0.92 2.38,1.5 3.87,1.5 1.49,0 2.84,-0.57 3.87,-1.5 0.04,0.01 0.07,0.03 0.1,0.04 0.29,1.35 1.05,2.61 2.25,3.48 1.2,0.87 2.63,1.21 4,1.07 0.02,0.03 0.05,0.06 0.07,0.09 -0.56,1.26 -0.68,2.72 -0.22,4.14 0.46,1.42 1.42,2.53 2.62,3.22 0,0.02 0,0.04 0,0.05 0,0.02 0,0.04 0,0.05 -1.2,0.7 -2.16,1.81 -2.62,3.22 z"
   id="path90"
   style="fill:url(#SVGID_8_)" />
		<linearGradient
   id="SVGID_9_"
   gradientUnits="userSpaceOnUse"
   x1="59.0518"
   y1="62.368198"
   x2="59.0518"
   y2="27.850201">
			<stop
   offset="1.819156e-03"
   style="stop-color:#EB7C44"
   id="stop92" />
			<stop
   offset="1"
   style="stop-color:#FFD043"
   id="stop94" />
		</linearGradient>
		<circle
   class="st9"
   cx="59.049999"
   cy="44.599998"
   r="6.6399999"
   id="circle97"
   style="fill:url(#SVGID_9_)" />
	</g>
</g>
</svg>
