<?xml version="1.0" encoding="UTF-8" standalone="no"?>
<!-- Generator: Adobe Illustrator 24.3.0, SVG Export Plug-In . SVG Version: 6.00 Build 0)  -->

<svg
   version="1.1"
   id="Layer_1"
   x="0px"
   y="0px"
   viewBox="0 0 36 36"
   xml:space="preserve"
   sodipodi:docname="ophyd_favicon.svg"
   width="36"
   height="36"
   inkscape:version="1.2.1 (0b8a7e5fb6, 2022-09-14, custom)"
   xmlns:inkscape="http://www.inkscape.org/namespaces/inkscape"
   xmlns:sodipodi="http://sodipodi.sourceforge.net/DTD/sodipodi-0.dtd"
   xmlns="http://www.w3.org/2000/svg"
   xmlns:svg="http://www.w3.org/2000/svg"><defs
   id="defs122">
	
	
	
</defs><sodipodi:namedview
   id="namedview120"
   pagecolor="#ffffff"
   bordercolor="#666666"
   borderopacity="1.0"
   inkscape:showpageshadow="2"
   inkscape:pageopacity="0.0"
   inkscape:pagecheckerboard="0"
   inkscape:deskcolor="#d1d1d1"
   showgrid="false"
   inkscape:zoom="31.668714"
   inkscape:cx="22.356449"
   inkscape:cy="16.214741"
   inkscape:window-width="3368"
   inkscape:window-height="1376"
   inkscape:window-x="72"
   inkscape:window-y="27"
   inkscape:window-maximized="1"
   inkscape:current-layer="Layer_1" />
<style
   type="text/css"
   id="style18">
	.st0{fill:url(#SVGID_1_);}
	.st1{fill:url(#SVGID_2_);}
	.st2{fill:url(#SVGID_3_);}
	.st3{fill:url(#SVGID_4_);}
	.st4{fill:url(#SVGID_5_);}
	.st5{fill:url(#SVGID_6_);}
	.st6{fill:url(#SVGID_7_);}
	.st7{fill:url(#SVGID_8_);}
	.st8{fill:#EB7C44;}
	.st9{fill:url(#SVGID_9_);}
	.st10{fill:url(#SVGID_10_);}
	.st11{fill:url(#SVGID_11_);}
	.st12{fill:url(#SVGID_12_);}
	.st13{fill:#33BBED;}
	.st14{fill:url(#SVGID_13_);}
	.st15{fill:url(#SVGID_14_);}
	.st16{fill:url(#SVGID_15_);}
	.st17{fill:url(#SVGID_16_);}
	.st18{fill:url(#SVGID_17_);}
	.st19{fill:url(#SVGID_18_);}
	.st20{fill:url(#SVGID_19_);}
	.st21{fill:url(#SVGID_20_);}
	.st22{fill:url(#SVGID_21_);}
</style>
<g
   id="g115"
   transform="translate(-41.05,-26.6)">
		<linearGradient
   id="SVGID_8_"
   gradientUnits="userSpaceOnUse"
   x1="59.0518"
   y1="62.368198"
   x2="59.0518"
   y2="27.850201">
			<stop
   offset="1.819156e-03"
   style="stop-color:#EB7C44"
   id="stop101" />
			<stop
   offset="1"
   style="stop-color:#FFD043"
   id="stop103" />
		</linearGradient>
		<path
   class="st7"
   d="m 59.05,26.73 c -9.87,0 -17.87,8 -17.87,17.87 0,9.87 8,17.87 17.87,17.87 9.87,0 17.87,-8 17.87,-17.87 0,-9.87 -8,-17.87 -17.87,-17.87 z m 10.09,21.14 c -0.46,1.42 -0.34,2.88 0.22,4.14 -0.02,0.03 -0.05,0.06 -0.07,0.09 -1.37,-0.14 -2.8,0.19 -4,1.07 -1.21,0.88 -1.96,2.13 -2.25,3.48 -0.03,0.01 -0.07,0.03 -0.1,0.04 -1.03,-0.92 -2.38,-1.5 -3.87,-1.5 -1.49,0 -2.84,0.57 -3.87,1.5 -0.04,-0.01 -0.07,-0.03 -0.1,-0.04 -0.29,-1.35 -1.05,-2.61 -2.25,-3.48 -1.2,-0.87 -2.63,-1.21 -4,-1.07 -0.02,-0.03 -0.05,-0.06 -0.07,-0.09 0.56,-1.26 0.68,-2.72 0.22,-4.14 -0.46,-1.42 -1.42,-2.53 -2.62,-3.22 0,-0.02 0,-0.04 0,-0.05 0,-0.02 0,-0.04 0,-0.05 1.2,-0.69 2.16,-1.8 2.62,-3.22 0.46,-1.42 0.34,-2.88 -0.22,-4.14 0.02,-0.03 0.05,-0.06 0.07,-0.09 1.37,0.14 2.8,-0.19 4,-1.07 1.21,-0.88 1.96,-2.13 2.25,-3.48 0.03,-0.01 0.07,-0.03 0.1,-0.04 1.03,0.92 2.38,1.5 3.87,1.5 1.49,0 2.84,-0.57 3.87,-1.5 0.04,0.01 0.07,0.03 0.1,0.04 0.29,1.35 1.05,2.61 2.25,3.48 1.2,0.87 2.63,1.21 4,1.07 0.02,0.03 0.05,0.06 0.07,0.09 -0.56,1.26 -0.68,2.72 -0.22,4.14 0.46,1.42 1.42,2.53 2.62,3.22 0,0.02 0,0.04 0,0.05 0,0.02 0,0.04 0,0.05 -1.2,0.7 -2.16,1.81 -2.62,3.22 z"
   id="path106"
   style="fill:url(#SVGID_8_)" />
		<linearGradient
   id="SVGID_9_"
   gradientUnits="userSpaceOnUse"
   x1="59.0518"
   y1="62.368198"
   x2="59.0518"
   y2="27.850201">
			<stop
   offset="1.819156e-03"
   style="stop-color:#EB7C44"
   id="stop108" />
			<stop
   offset="1"
   style="stop-color:#FFD043"
   id="stop110" />
		</linearGradient>
		<circle
   class="st9"
   cx="59.049999"
   cy="44.599998"
   r="6.6399999"
   id="circle113"
   style="fill:url(#SVGID_9_)" />
	</g>
</svg>
